<?xml version="1.0" standalone="no"?>
<!DOCTYPE svg PUBLIC "-//W3C//DTD SVG 20010904//EN"
 "http://www.w3.org/TR/2001/REC-SVG-20010904/DTD/svg10.dtd">
<svg version="1.0" xmlns="http://www.w3.org/2000/svg"
 width="300.000000pt" height="300.000000pt" viewBox="0 0 300.000000 300.000000"
 preserveAspectRatio="xMidYMid meet">
<metadata>
Created by potrace 1.11, written by Peter Selinger 2001-2013
</metadata>
<g transform="translate(0.000000,300.000000) scale(0.100000,-0.100000)"
fill="#000000" stroke="none">
<path d="M2337 2663 c-2 -5 -4 -66 -6 -138 -1 -71 -7 -135 -13 -142 -6 -7 -34
-26 -63 -43 -67 -38 -73 -45 -80 -105 -4 -28 -8 -61 -10 -75 -4 -26 -7 -52
-25 -190 -13 -95 -19 -143 -25 -180 -3 -14 -7 -50 -10 -80 -3 -30 -8 -66 -10
-80 -6 -30 -12 -77 -20 -145 -3 -27 -7 -61 -10 -75 -2 -14 -6 -41 -9 -60 -2
-19 -7 -55 -11 -80 l-7 -45 -63 0 c-50 0 -70 -5 -94 -22 -16 -13 -37 -23 -46
-23 -8 0 -15 -4 -15 -10 0 -5 -7 -10 -16 -10 -8 0 -13 -3 -10 -8 2 -4 -31 -8
-73 -9 -89 -2 -152 -23 -175 -58 -18 -27 -21 -65 -6 -65 6 0 10 11 10 23 0 45
50 72 148 81 l62 5 -4 -28 c-2 -18 5 -38 21 -57 24 -29 24 -29 41 -9 17 20 58
23 46 3 -4 -5 3 -5 16 2 15 8 20 8 16 1 -5 -8 5 -11 31 -10 62 2 83 0 83 -11
0 -7 -173 -10 -497 -10 l-498 0 1 32 c1 45 -15 111 -29 120 -9 6 -9 8 1 8 6 0
12 5 12 10 0 6 -5 10 -11 10 -6 0 -29 16 -51 36 -50 45 -95 64 -150 64 -53 0
-101 -28 -119 -68 -8 -18 -18 -28 -26 -25 -14 6 -8 -21 10 -45 5 -7 7 -15 4
-19 -4 -3 -9 2 -13 11 -9 24 -19 19 -22 -11 -1 -14 -3 -27 -5 -28 -1 -2 -36
-5 -77 -9 -143 -12 -215 -55 -202 -122 5 -27 46 -64 71 -64 13 0 13 -2 3 -9
-11 -6 -10 -10 4 -15 11 -4 20 -2 22 3 4 13 32 15 32 3 0 -4 12 -8 28 -9 15 0
36 -1 47 -2 11 0 38 -17 59 -36 22 -19 47 -36 55 -37 9 -1 -99 -5 -239 -8
l-255 -5 -2 -160 c0 -88 -2 -170 -2 -182 -1 -22 -5 -23 -70 -23 -39 0 -73 -4
-76 -10 -4 -7 50 -10 154 -10 89 0 161 -4 161 -8 0 -5 -14 -6 -31 -4 -20 3
-29 1 -26 -5 4 -6 -5 -15 -18 -21 -20 -9 -26 -8 -34 6 -14 24 -31 3 -20 -25
l8 -22 637 -1 c574 0 636 1 624 15 -11 13 -10 14 4 9 9 -3 16 -10 16 -15 0 -5
14 -9 30 -9 21 0 30 5 30 16 0 8 5 12 10 9 6 -4 8 -10 6 -14 -6 -10 61 -8 70
2 11 11 26 8 19 -3 -3 -5 1 -10 9 -10 17 0 39 34 29 44 -3 3 -15 6 -25 6 -13
0 -17 4 -12 13 5 8 2 8 -9 -2 -10 -7 -17 -9 -17 -3 0 6 -20 10 -44 10 -37 0
-44 -2 -39 -16 3 -11 2 -13 -4 -6 -4 6 -24 12 -43 12 -19 0 -55 3 -80 5 -25 2
-50 0 -56 -4 -6 -5 -11 -3 -11 6 0 12 44 14 280 15 181 0 284 -3 292 -10 20
-17 1065 3 1065 20 0 6 -42 10 -99 10 -90 0 -99 2 -104 20 -3 11 -1 23 4 26
12 7 49 80 55 108 6 29 14 218 16 361 2 207 -19 276 -79 261 -16 -4 -37 -7
-48 -8 -70 0 -95 -33 -96 -128 l-1 -60 -32 0 c-19 0 -33 5 -33 13 0 12 -11
164 -18 247 -2 25 -7 81 -10 125 -3 44 -8 91 -10 105 -2 14 -7 69 -10 123 -3
53 -8 105 -9 115 -3 15 -13 132 -21 257 -2 22 -6 65 -10 95 -4 30 -7 71 -6 91
1 31 -8 48 -63 116 l-65 80 -2 146 c-1 138 -2 158 -12 140z m-1459 -1419 c29
-14 52 -29 52 -32 0 -9 -227 -8 -236 1 -4 3 -1 14 7 23 34 41 105 44 177 8z
m1151 -43 c24 -16 2 -29 -49 -29 -28 -1 -54 -3 -59 -7 -5 -3 -12 -1 -16 5 -4
6 -11 8 -16 5 -5 -4 -9 -2 -9 4 0 22 120 40 149 22z m789 -23 c18 -18 15 -48
-5 -47 -11 0 -13 3 -5 6 19 8 14 23 -9 23 -39 0 -63 -42 -37 -68 9 -9 9 -15 0
-24 -16 -16 -15 -31 1 -22 9 6 9 5 0 -7 -6 -8 -11 -41 -10 -76 1 -33 -1 -59
-5 -56 -5 2 -8 26 -8 54 0 42 -3 49 -20 49 -16 0 -20 7 -20 35 0 41 24 105 39
105 6 0 11 6 11 14 0 13 16 22 46 25 5 0 15 -4 22 -11z m-98 -10 c0 -7 -7 -21
-15 -32 -7 -10 -17 -42 -21 -72 -7 -59 -23 -73 -26 -21 -2 56 3 90 19 114 16
25 43 31 43 11z m65 -48 c-4 -6 -1 -19 6 -28 12 -16 12 -16 -5 0 -16 14 -15
38 0 38 3 0 2 -5 -1 -10z m-959 -18 c1 -7 0 -8 -3 -2 -3 8 -9 7 -19 -1 -12
-10 -13 -9 -8 5 7 18 26 17 30 -2z m989 8 c3 -5 1 -10 -4 -10 -6 0 -11 5 -11
10 0 6 2 10 4 10 3 0 8 -4 11 -10z m-1819 -52 l-1 -43 -47 -3 c-34 -2 -48 -7
-48 -18 0 -12 59 -14 398 -16 l397 -3 -397 -2 c-360 -3 -432 -8 -382 -27 8 -3
12 -10 9 -16 -11 -17 -19 -11 -38 30 -10 22 -34 49 -53 60 -19 12 -32 25 -29
29 6 11 107 1 123 -11 9 -8 12 -5 12 8 0 17 1 17 15 -2 8 -10 15 -14 16 -9 1
6 3 15 4 20 2 6 3 18 4 28 2 37 18 14 17 -25z m-326 7 c19 -1 35 -3 35 -5 0
-1 10 -3 23 -4 35 -4 46 -20 26 -37 -12 -9 -15 -10 -10 -1 5 9 -4 12 -36 13
-24 1 -46 1 -50 0 -5 0 -8 5 -8 12 0 7 -8 3 -16 -8 -11 -14 -18 -16 -21 -7 -3
6 -9 9 -15 6 -5 -3 -16 2 -23 12 -13 18 -14 18 -15 2 0 -20 -40 -26 -40 -7 0
7 -9 5 -24 -5 -15 -9 -27 -12 -31 -6 -4 6 -13 5 -25 -2 -10 -7 -17 -15 -14
-19 2 -4 -3 -12 -11 -19 -8 -7 -12 -16 -9 -21 3 -5 0 -9 -6 -9 -6 0 -8 -4 -5
-10 3 -5 0 -10 -8 -10 -17 0 -34 38 -29 67 7 44 175 92 247 70 17 -5 46 -10
65 -12z m1140 5 c0 -5 -2 -10 -4 -10 -3 0 -8 5 -11 10 -3 6 -1 10 4 10 6 0 11
-4 11 -10z m-960 -87 c8 -10 20 -30 27 -45 11 -24 10 -29 -7 -38 -38 -20 -70
-2 -50 30 6 10 9 8 13 -6 3 -11 5 -3 6 17 0 19 -4 40 -11 47 -7 7 -8 12 -2 12
5 0 16 -8 24 -17z m-400 -47 c0 -6 -7 -2 -15 8 -8 11 -15 25 -15 30 0 6 7 2
15 -8 8 -11 15 -25 15 -30z m1283 37 c-7 -2 -19 -2 -25 0 -7 3 -2 5 12 5 14 0
19 -2 13 -5z m44 1 c-3 -3 -12 -4 -19 -1 -8 3 -5 6 6 6 11 1 17 -2 13 -5z m46
-1 c-7 -2 -19 -2 -25 0 -7 3 -2 5 12 5 14 0 19 -2 13 -5z m70 0 c-7 -2 -19 -2
-25 0 -7 3 -2 5 12 5 14 0 19 -2 13 -5z m50 0 c-7 -2 -19 -2 -25 0 -7 3 -2 5
12 5 14 0 19 -2 13 -5z m44 1 c-3 -3 -12 -4 -19 -1 -8 3 -5 6 6 6 11 1 17 -2
13 -5z m738 -274 c1 -149 -3 -270 -7 -270 -4 0 -9 123 -10 274 -2 182 0 272 7
270 7 -3 10 -101 10 -274z m-35 -20 c0 -243 -1 -250 -20 -250 -19 0 -20 7 -20
200 0 110 -3 201 -7 201 -5 1 -205 2 -445 4 l-438 2 -1 -131 c0 -72 0 -164 1
-203 l1 -73 -30 0 -30 0 1 211 c1 115 5 212 8 214 4 3 216 6 470 7 l463 2 21
33 c11 18 22 33 24 33 1 0 2 -112 2 -250z m-1696 203 c2 -10 7 -33 11 -50 l7
-33 -124 0 -123 0 63 35 c35 18 69 40 75 48 32 39 80 39 91 0z m-345 -8 c25 0
51 -29 38 -41 -12 -13 -59 9 -76 36 -13 20 -13 23 -1 15 8 -5 26 -9 39 -10z
m104 -14 c5 -21 -9 -41 -30 -41 -17 0 -17 47 0 53 21 9 25 8 30 -12z m326 -59
c-23 -2 -43 -1 -45 1 -3 3 -8 21 -11 41 l-6 37 52 -38 51 -38 -41 -3z m-229
63 c0 -4 -67 -35 -77 -35 -2 0 1 9 7 20 7 13 21 20 40 20 17 0 30 -2 30 -5z
m836 -27 c4 -30 -18 -35 -138 -35 l-118 0 0 29 0 29 127 -3 c110 -3 126 -5
129 -20z m1061 -10 c-3 -8 -6 -5 -6 6 -1 11 2 17 5 13 3 -3 4 -12 1 -19z
m-2060 -55 c2 -6 -93 -9 -234 -8 -131 1 -246 -3 -255 -7 -13 -6 -18 -5 -18 6
0 19 41 21 305 20 111 -1 201 -6 202 -11z m291 8 c23 -1 42 -5 42 -9 0 -4 -61
-8 -135 -8 -74 0 -135 3 -135 7 0 10 42 14 120 12 36 -1 84 -2 108 -2z m702
-6 c3 -6 -42 -10 -122 -11 -71 0 -128 3 -128 7 0 12 24 14 139 14 60 0 108 -5
111 -10z m-535 -4 c3 -6 -17 -9 -50 -8 -30 1 -55 5 -55 10 0 11 98 9 105 -2z
m780 0 c7 -1 10 -63 10 -171 l0 -170 -57 0 -58 0 0 169 c0 103 4 171 10 173 8
2 49 2 95 -1z m133 0 c22 -1 23 -4 21 -76 -2 -72 -3 -74 -29 -80 -15 -3 -42
-19 -61 -36 -18 -16 -34 -29 -36 -29 -2 0 -3 48 -2 108 2 115 4 120 57 116 15
-1 37 -3 50 -3z m280 0 c8 -1 12 -18 12 -51 l0 -49 -52 6 c-29 3 -54 6 -55 7
-1 1 -4 19 -6 40 -5 42 10 53 61 50 15 -1 33 -3 40 -3z m139 0 c7 -1 11 -25
10 -71 l-1 -70 -33 3 c-19 2 -39 9 -45 15 -7 7 -18 12 -25 12 -7 0 -13 6 -14
13 -7 88 -6 96 9 99 14 3 65 2 99 -1z m-257 -46 l0 -45 -42 0 c-24 0 -52 -3
-63 -6 -20 -5 -23 9 -16 84 1 8 20 12 61 12 l60 0 0 -45z m405 -124 l0 -169
-53 -4 c-29 -2 -60 0 -69 3 -14 4 -12 9 8 28 13 13 34 30 47 38 27 19 29 43 2
50 -13 3 -20 14 -20 29 0 12 -8 29 -19 36 -15 11 -18 27 -19 86 l-1 72 62 0
62 0 0 -169z m-2438 92 c-3 -10 -5 -4 -5 12 0 17 2 24 5 18 2 -7 2 -21 0 -30z
m347 16 c-4 -7 -255 -1 -262 6 -3 3 56 4 131 2 74 -1 133 -5 131 -8z m81 1
c-5 -9 -65 -11 -65 -3 0 5 15 8 34 8 19 0 33 -2 31 -5z m76 -5 c1 -5 2 -26 4
-45 2 -34 12 -131 20 -197 3 -21 0 -33 -8 -33 -18 -1 -377 -1 -414 -1 -28 1
-33 5 -33 26 0 23 4 24 63 27 l62 3 2 90 c2 131 6 135 12 11 l6 -109 48 -1
c27 -1 53 2 59 5 6 4 10 48 9 110 0 62 3 98 8 89 4 -8 8 -55 7 -103 -1 -49 3
-91 8 -95 16 -10 116 -8 119 3 2 5 3 57 3 115 -1 73 -5 105 -13 105 -6 0 -14
2 -17 5 -3 3 8 6 24 5 17 0 31 -4 31 -10z m339 3 c0 -5 -29 -8 -65 -8 -45 0
-65 -4 -66 -12 0 -10 -2 -10 -6 0 -3 8 -30 12 -84 12 -43 0 -79 3 -79 8 0 4
67 7 150 7 82 0 150 -3 150 -7z m93 -5 c-13 -2 -35 -2 -50 0 -16 2 -5 4 22 4
28 0 40 -2 28 -4z m560 -105 c-2 -183 2 -168 -35 -167 -30 1 -31 2 -8 8 16 4
25 14 25 26 0 26 -72 47 -85 25 -6 -9 -29 -14 -72 -14 -50 -1 -63 -4 -66 -18
-2 -11 5 -18 20 -21 15 -3 10 -5 -14 -6 l-37 -1 1 48 c0 26 -1 86 -1 135 l-1
87 -69 0 c-46 0 -70 -4 -73 -12 -2 -7 -3 -68 -2 -135 l2 -123 -79 0 c-92 0
-89 -6 -60 125 l17 80 35 1 c69 3 69 3 69 33 0 28 -2 30 -47 34 -27 2 71 3
217 3 l264 -1 -1 -107z m-1496 35 c-3 -10 -5 -4 -5 12 0 17 2 24 5 18 2 -7 2
-21 0 -30z m789 2 l68 0 8 -35 c4 -19 10 -51 13 -70 3 -19 8 -50 11 -67 5 -26
3 -33 -10 -33 -9 -1 -59 -1 -111 -1 -52 0 -119 0 -149 1 l-54 0 -11 63 c-18
95 -20 135 -7 139 6 2 44 3 84 2 67 -1 72 0 73 20 0 21 1 21 8 1 7 -17 17 -20
77 -20z m405 23 c0 -7 1 -51 2 -98 1 -82 1 -84 -23 -90 -14 -3 -34 -4 -45 -2
-19 3 -21 10 -19 100 1 53 2 98 3 100 1 1 19 2 41 2 25 0 40 -5 41 -12z m975
-8 c25 -7 20 -9 -31 -10 -106 -3 -197 -14 -215 -25 -12 -8 -20 9 -11 23 16 27
183 35 257 12z m-1236 -30 c-5 -17 -9 -33 -9 -35 0 -19 -14 -95 -17 -92 -2 2
-10 33 -18 70 -14 67 -12 72 21 68 6 -1 14 3 18 9 12 19 14 10 5 -20z m1113
-33 c-5 -26 -4 -28 18 -25 19 2 24 8 22 31 l-2 28 102 -5 c56 -2 108 -5 116
-5 8 -1 11 -7 7 -17 -4 -9 -1 -23 5 -30 9 -11 6 -14 -15 -14 -14 0 -25 5 -23
12 2 13 -118 19 -149 7 -18 -7 -18 -8 1 -9 11 -1 46 -1 78 0 31 1 57 -3 57 -8
0 -14 -259 -7 -273 7 -6 6 -23 11 -38 11 -53 0 -39 24 20 36 80 15 81 15 74
-19z m-2046 -9 c-3 -7 -5 -2 -5 12 0 14 2 19 5 13 2 -7 2 -19 0 -25z m2578 6
c17 6 28 -21 12 -28 -7 -4 -1 -4 11 -2 21 4 23 2 17 -22 -7 -27 -21 -42 -41
-42 -16 0 -20 16 -22 75 0 28 2 42 5 32 2 -10 11 -16 18 -13z m-500 6 c3 -5
-1 -10 -10 -10 -9 0 -13 5 -10 10 3 6 8 10 10 10 2 0 7 -4 10 -10z m-225 -10
c0 -5 -7 -10 -16 -10 -8 0 -12 5 -9 10 3 6 10 10 16 10 5 0 9 -4 9 -10z m50 0
c0 -5 -4 -10 -9 -10 -6 0 -13 5 -16 10 -3 6 1 10 9 10 9 0 16 -4 16 -10z m440
0 c0 -5 -4 -10 -10 -10 -5 0 -10 5 -10 10 0 6 5 10 10 10 6 0 10 -4 10 -10z
m-2343 -42 c-3 -8 -6 -5 -6 6 -1 11 2 17 5 13 3 -3 4 -12 1 -19z m38 -42 c3
-27 8 -53 11 -58 3 -4 -3 -8 -14 -8 -16 0 -18 8 -19 66 -1 74 12 74 22 0z
m2326 21 c-8 -8 -51 -12 -114 -13 -56 0 -75 1 -42 3 93 5 125 12 125 29 0 12
4 13 21 3 16 -8 18 -14 10 -22z m-577 -3 c-2 -19 1 -24 12 -20 18 7 46 -3 39
-14 -6 -9 -44 -2 -62 12 -9 7 -10 16 -2 29 13 26 17 24 13 -7z m287 10 c6 -8
19 -15 28 -16 9 -1 -9 -4 -39 -7 -63 -7 -90 -3 -68 10 7 5 9 9 3 10 -14 1 23
15 45 16 10 1 24 -5 31 -13z m-2074 -26 c-3 -8 -6 -5 -6 6 -1 11 2 17 5 13 3
-3 4 -12 1 -19z m1893 -16 c0 -5 -7 -9 -15 -9 -8 0 -15 4 -15 9 0 4 7 8 15 8
8 0 15 -4 15 -8z m380 -8 c0 -2 -53 -3 -117 -2 l-118 2 100 5 c94 6 135 4 135
-5z m35 6 c-3 -5 -12 -10 -18 -10 -7 0 -6 4 3 10 19 12 23 12 15 0z m-857 -15
c-5 -15 -37 -13 -43 2 -3 10 2 13 20 11 14 -2 24 -7 23 -13z m-158 -5 c0 -5
-5 -10 -11 -10 -5 0 -7 5 -4 10 3 6 8 10 11 10 2 0 4 -4 4 -10z m45 0 c3 -5 1
-10 -4 -10 -6 0 -11 5 -11 10 0 6 2 10 4 10 3 0 8 -4 11 -10z m1235 -10 c0
-11 -4 -20 -10 -20 -5 0 -10 9 -10 20 0 11 5 20 10 20 6 0 10 -9 10 -20z
m-796 -5 c3 -8 1 -15 -4 -15 -6 0 -10 7 -10 15 0 8 2 15 4 15 2 0 6 -7 10 -15z
m151 -5 c4 -6 -12 -10 -40 -10 -28 0 -44 4 -40 10 3 6 21 10 40 10 19 0 37 -4
40 -10z m290 0 c6 -10 -11 -12 -135 -11 -77 0 -72 -1 -67 9 8 11 195 14 202 2z
m-832 -7 c-13 -2 -35 -2 -50 0 -16 2 -5 4 22 4 28 0 40 -2 28 -4z m-1193 -27
c0 -3 -4 -8 -10 -11 -5 -3 -10 -1 -10 4 0 6 5 11 10 11 6 0 10 -2 10 -4z m487
-2 c-3 -3 -12 -4 -19 -1 -8 3 -5 6 6 6 11 1 17 -2 13 -5z m133 -3 c0 -4 -11
-6 -25 -3 -14 2 -25 6 -25 8 0 2 11 4 25 4 14 0 25 -4 25 -9z m277 3 c-7 -7
-199 -6 -206 1 -2 3 44 5 104 5 60 0 106 -3 102 -6z m59 -3 c-3 -5 -15 -7 -26
-4 -28 7 -25 13 6 13 14 0 23 -4 20 -9z m249 -21 c3 -5 -1 -10 -10 -10 -9 0
-13 5 -10 10 3 6 8 10 10 10 2 0 7 -4 10 -10z m-1245 -20 c0 -5 -2 -10 -4 -10
-3 0 -8 5 -11 10 -3 6 -1 10 4 10 6 0 11 -4 11 -10z m1190 6 c0 -2 -7 -9 -15
-16 -13 -11 -14 -10 -9 4 5 14 24 23 24 12z m70 -10 c0 -3 -4 -8 -10 -11 -5
-3 -10 -1 -10 4 0 6 5 11 10 11 6 0 10 -2 10 -4z"/>
<path d="M1439 698 c-4 -10 -4 -158 1 -159 24 -6 213 -2 217 4 4 7 7 104 4
145 -1 9 -30 12 -111 12 -60 0 -111 -1 -111 -2z"/>
<path d="M140 345 c0 -8 4 -15 10 -15 5 0 7 7 4 15 -4 8 -8 15 -10 15 -2 0 -4
-7 -4 -15z"/>
</g>
</svg>
